<svg width="43" height="27" viewBox="0 0 43 27" fill="none" xmlns="http://www.w3.org/2000/svg">
<g clip-path="url(#clip0_795_16106)">
<mask id="mask0_795_16106" style="mask-type:luminance" maskUnits="userSpaceOnUse" x="0" y="0" width="43" height="27">
<path d="M0.729492 0.778809H42.7796V26.0088H0.729492V0.778809Z" fill="white"/>
</mask>
<g mask="url(#mask0_795_16106)">
<path fill-rule="evenodd" clip-rule="evenodd" d="M21.7545 0.778809C16.1478 0.778809 12.6437 3.58215 11.242 9.18882C13.3445 6.38548 15.7974 5.33423 18.6008 6.03507C20.2002 6.43454 21.3434 7.59559 22.6088 8.87967C24.67 10.9721 27.0559 13.3938 32.267 13.3938C37.8737 13.3938 41.3779 10.5905 42.7796 4.98381C40.677 7.78715 38.2241 8.8384 35.4208 8.13757C33.8213 7.73809 32.6782 6.57704 31.4128 5.29296C29.3516 3.20058 26.9656 0.778809 21.7545 0.778809ZM11.242 13.3938C5.63533 13.3938 2.13116 16.1972 0.729492 21.8038C2.832 19.0005 5.28492 17.9492 8.08825 18.6501C9.68771 19.0503 10.8309 20.2106 12.0962 21.4947C14.1575 23.5871 16.5434 26.0088 21.7545 26.0088C27.3612 26.0088 30.8654 23.2055 32.267 17.5988C30.1645 20.4022 27.7116 21.4534 24.9083 20.7526C23.3088 20.3531 22.1657 19.1921 20.9003 17.908C18.8391 15.8156 16.4531 13.3938 11.242 13.3938Z" fill="#38BDF8"/>
</g>
</g>
<defs>
<clipPath id="clip0_795_16106">
<rect width="42.0501" height="25.6973" fill="white" transform="translate(0.729492 0.778809)"/>
</clipPath>
</defs>
</svg>
