<svg width="27" height="26" viewBox="0 0 27 26" fill="none" xmlns="http://www.w3.org/2000/svg">
<path d="M0.713379 25.8393V0.14209H26.4106V25.8393H0.713379Z" fill="#FFD600"/>
<path d="M17.5152 19.3776C18.0092 20.1799 18.5459 20.9487 19.683 20.9487C20.6381 20.9487 21.1392 20.474 21.1392 19.8173C21.1392 19.0314 20.621 18.7523 19.5703 18.2947L18.9942 18.0492C17.3317 17.3439 16.2261 16.4602 16.2261 14.5936C16.2261 12.8733 17.543 11.5642 19.601 11.5642C21.0664 11.5642 22.1193 12.0717 22.8788 13.4008L21.0843 14.5479C20.6895 13.8427 20.2627 13.565 19.601 13.565C18.9257 13.565 18.4981 13.9912 18.4981 14.5479C18.4981 15.236 18.9264 15.5144 19.915 15.9406L20.4911 16.1861C22.4505 17.0206 23.5555 17.8729 23.5555 19.7887C23.5555 21.8531 21.9251 22.9845 19.7366 22.9845C17.5959 22.9845 16.3802 21.9102 15.7035 20.5804L17.5152 19.3776ZM9.24496 19.4361C9.60615 20.0828 10.1551 20.5804 10.9446 20.5804C11.6998 20.5804 12.1345 20.282 12.1345 19.122V11.5635H14.5136V19.4875C14.5136 21.8909 13.1195 22.9845 11.0837 22.9845C9.24425 22.9845 7.91656 21.7382 7.37549 20.5804L9.24496 19.4361Z" fill="#000001"/>
</svg>
